<svg width="668" height="668" viewBox="0 0 668 668" fill="none" xmlns="http://www.w3.org/2000/svg">
<path d="M439.999 415.824C435.489 384.005 427.887 352.702 417.302 322.359L314.317 359.862L345.534 445.588C381.545 432.724 412.977 423.07 439.999 415.824Z" fill="#FFD35F"/>
<path d="M358.108 203.472C343.862 182.915 328.495 164.82 312.392 149.954C293.443 132.454 274.829 120.582 257.068 114.663C245.107 110.679 233.969 109.576 223.816 111.332L270.568 239.732C304.687 227.061 333.698 214.808 358.108 203.472Z" fill="#BFCA00"/>
<path d="M163.034 274.511C189.013 267.496 219.102 258.227 253.372 245.994L206.628 117.623C183.354 131.287 167.614 164.409 162.914 210.493C160.902 231.787 160.942 253.225 163.034 274.511Z" fill="#AD2082"/>
<path d="M165.176 292.959C169.687 324.779 177.288 356.083 187.873 386.428L290.859 348.925L259.634 263.197C223.63 276.057 192.191 285.711 165.176 292.959Z" fill="#A08EBF"/>
<path d="M144.708 208.635C147.571 180.526 154.173 157.239 163.709 139.056C121.86 165.973 88.7704 204.512 68.4951 249.951C61.9152 264.646 56.7178 279.922 52.9703 295.58C69.9022 294.209 100.457 290.274 145.123 279.155C142.628 255.721 142.489 232.096 144.708 208.635Z" fill="#779280"/>
<path d="M328.338 451.852L297.121 366.124L194.171 403.614C205.564 433.661 219.84 462.533 236.8 489.828C262.162 477.995 292.463 465.165 328.338 451.852Z" fill="#0B765C"/>
<path d="M460.467 500.145C457.596 528.25 450.994 551.54 441.459 569.728C497.142 533.747 536.808 477.683 552.205 413.199C535.28 414.578 504.726 418.509 460.044 429.627C462.546 453.059 462.688 476.684 460.467 500.145Z" fill="#D38054"/>
<path d="M546.613 275.269L434.499 316.097C445.25 347.004 453.045 378.862 457.779 411.242C507.18 399.023 539.508 395.494 555.943 394.517C562.376 354.592 559.177 313.708 546.613 275.269Z" fill="#6BB642"/>
<path d="M442.134 434.277C416.162 441.284 386.066 450.557 351.803 462.79L398.547 591.16C421.814 577.487 437.553 544.367 442.261 498.287C444.275 476.996 444.232 455.56 442.134 434.277Z" fill="#245B9D"/>
<path d="M147.396 297.541C97.988 309.762 65.6749 313.289 49.2322 314.266C42.7995 354.193 45.9983 395.078 58.5624 433.518L170.677 392.69C159.933 361.779 152.138 329.921 147.396 297.541Z" fill="#F7A512"/>
<path d="M247.06 505.316C261.306 525.876 276.673 543.977 292.784 558.843C311.732 576.335 330.346 588.206 348.1 594.13C360.054 598.112 371.207 599.214 381.359 597.453L334.6 469.052C300.481 481.724 271.47 493.981 247.06 505.316Z" fill="#40A6D2"/>
<path d="M230.381 513.261C188.951 533.508 163.003 550.164 149.171 560.001C164.292 571.196 180.59 580.708 197.775 588.367C240.67 607.6 288.042 614.616 334.671 608.642C317.27 601.495 298.962 589.461 280.367 572.291C262.448 555.744 245.67 535.68 230.381 513.261Z" fill="#813F4C"/>
<path d="M176.968 409.877L64.8389 450.711C79.9218 488.232 103.735 521.615 134.301 548.091C147.489 538.279 174.509 520.183 220.246 497.75C203.081 469.889 188.591 440.467 176.968 409.877Z" fill="#E8B4A7"/>
<path d="M336.336 113.232C305.602 91.6202 276.456 77.9649 249.883 71.7038C313.382 53.1113 380.926 53.4444 444.238 72.6622C464.733 78.854 484.607 86.9408 503.603 96.8176C487.474 112.633 456.902 139.9 406.819 175.086C384.404 151.342 360.732 130.378 336.336 113.232Z" fill="#35889A"/>
<path d="M472.855 283.009C460.867 251.732 445.467 214.833 429.262 189.025C399.791 205.249 369.82 220.101 338.19 234.004L369.906 320.499L472.855 283.009Z" fill="#D90148"/>
<path d="M514.501 266.238L662.305 212.412C643.066 164.598 613.063 121.862 574.628 87.5247C544.493 114.742 508.339 141.535 467.274 166.855C485.617 198.683 501.409 231.915 514.501 266.238Z" fill="#1A5163"/>
</svg>
